<?xml version="1.0" encoding="UTF-8"?>
<svg version="1.1" xmlns="http://www.w3.org/2000/svg" width="64" height="64">
<path d="M0 0 C-1.39035119 3.28628464 -3.34787641 5.64559983 -5.78125 8.2421875 C-10.1916927 14.60340293 -9.6777412 22.62749821 -9 30 C-8.08153928 33.31403353 -6.79636297 36.07699823 -5 39 C-4.443125 39.9075 -3.88625 40.815 -3.3125 41.75 C3.4283765 48.30869065 10.73799989 50.2849673 19.82348633 50.32128906 C25.38209769 50.22884334 29.46180986 49.36926238 34 46 C34.969375 45.29875 35.93875 44.5975 36.9375 43.875 C39.06799976 42.1648289 39.06799976 42.1648289 40 40 C38.824375 40.04125 37.64875 40.0825 36.4375 40.125 C30.68266295 40.08432977 26.53760077 39.37047025 22.125 35.4375 C19.31681098 31.62505795 18.71606121 27.66470876 19 23 C19.85805767 19.37941521 21.24852284 16.70450984 24 14.125 C27.81828439 11.97721503 30.88711058 11.89125925 35.1875 11.9375 C36.81751953 11.95103516 36.81751953 11.95103516 38.48046875 11.96484375 C39.31191406 11.97644531 40.14335938 11.98804688 41 12 C41 15.63 41 19.26 41 23 C39.35 23 37.7 23 36 23 C35.505 20.03 35.505 20.03 35 17 C30.03088634 18.12697043 30.03088634 18.12697043 26 21 C25.12724087 24.27284675 24.86220337 26.44881348 25.6875 29.75 C27.24917069 32.42714975 28.15826258 32.87122625 31 34 C33.62162955 34.3543831 36.21531466 34.50162897 38.85546875 34.65625 C39.56316406 34.7696875 40.27085938 34.883125 41 35 C41.33 35.66 41.66 36.32 42 37 C46.10756219 29.81176617 46.41694002 21.2563904 44.2734375 13.3046875 C42.27871067 8.52058657 39.50072745 4.79245474 36 1 C39 1 39 1 40.5 2.3984375 C45.76689483 9.3386687 48.71776691 16.82787214 48.34375 25.6484375 C47.10498384 34.12272422 43.62796529 41.48503266 37 47 C28.17179627 52.38010592 19.56234367 54.79592139 9.26953125 52.3515625 C0.98608459 49.34640511 -4.91803179 44.62815769 -8.9375 36.75 C-12.7165808 28.50007445 -13.27180783 20.95244343 -10.375 12.25 C-8.65461688 7.96747488 -5.37003694 0 0 0 Z " fill="#7E9DBC" transform="translate(14,10)"/>
<path d="M0 0 C6 0 6 0 7.78271484 1.56054688 C8.48968506 2.62885742 8.48968506 2.62885742 9.2109375 3.71875 C9.73300781 4.48574219 10.25507813 5.25273437 10.79296875 6.04296875 C11.31503906 6.85378906 11.83710938 7.66460938 12.375 8.5 C12.92027344 9.31082031 13.46554688 10.12164062 14.02734375 10.95703125 C15.36994163 12.95915089 16.68743901 14.97806139 18 17 C18.33 11.39 18.66 5.78 19 0 C20.65 0 22.3 0 24 0 C24 9.24 24 18.48 24 28 C19 28 19 28 17.15625 26.27734375 C16.6096875 25.50519531 16.063125 24.73304687 15.5 23.9375 C14.61634766 22.71160156 14.61634766 22.71160156 13.71484375 21.4609375 C13.14894531 20.64882813 12.58304688 19.83671875 12 19 C11.22849609 17.96746094 11.22849609 17.96746094 10.44140625 16.9140625 C7 12.29302408 7 12.29302408 7 10 C6.34 10 5.68 10 5 10 C5 13.63 5 17.26 5 21 C3.35 21 1.7 21 0 21 C0 14.07 0 7.14 0 0 Z " fill="#80A0C0" transform="translate(8,22)"/>
<path d="M0 0 C0.33 1.32 0.66 2.64 1 4 C1.66 4 2.32 4 3 4 C3.33 3.01 3.66 2.02 4 1 C8.75 0.875 8.75 0.875 11 2 C11 2.99 11 3.98 11 5 C11.66 4.34 12.32 3.68 13 3 C12.67 4.32 12.34 5.64 12 7 C10.35 6.67 8.7 6.34 7 6 C7 5.34 7 4.68 7 4 C4.69 4.33 2.38 4.66 0 5 C0 3.35 0 1.7 0 0 Z " fill="#ADAEB1" transform="translate(33,0)"/>
<path d="M0 0 C1.32 0.99 2.64 1.98 4 3 C1.36 3.99 -1.28 4.98 -4 6 C-4.33 4.68 -4.66 3.36 -5 2 C-4.360625 1.855625 -3.72125 1.71125 -3.0625 1.5625 C-1.02454854 1.18992819 -1.02454854 1.18992819 0 0 Z " fill="#A9ABAE" transform="translate(19,3)"/>
<path d="M0 0 C1.0625 1.8125 1.0625 1.8125 2 4 C1.67 4.99 1.34 5.98 1 7 C0.67 6.67 0.34 6.34 0 6 C-1.34747084 5.76924918 -2.70377565 5.58846937 -4.0625 5.4375 C-5.361875 5.293125 -6.66125 5.14875 -8 5 C-8 4.67 -8 4.34 -8 4 C-5.36 4 -2.72 4 0 4 C0 2.68 0 1.36 0 0 Z " fill="#7794B2" transform="translate(54,45)"/>
<path d="M0 0 C1.98 0.495 1.98 0.495 4 1 C3.67 2.32 3.34 3.64 3 5 C1.68 4.34 0.36 3.68 -1 3 C-0.67 2.01 -0.34 1.02 0 0 Z M1 1 C1.33 1.99 1.66 2.98 2 4 C2 3.01 2 2.02 2 1 C1.67 1 1.34 1 1 1 Z " fill="#A9ABAE" transform="translate(23,1)"/>
<path d="M0 0 C0.99 0.33 1.98 0.66 3 1 C2.67 2.32 2.34 3.64 2 5 C0.68 4.34 -0.64 3.68 -2 3 C-1.34 3 -0.68 3 0 3 C0 2.01 0 1.02 0 0 Z " fill="#A8AAAD" transform="translate(47,4)"/>
<path d="M0 0 C0.99 0.495 0.99 0.495 2 1 C2.33 1.99 2.66 2.98 3 4 C2.01 4 1.02 4 0 4 C0 2.68 0 1.36 0 0 Z " fill="#B0B1B4" transform="translate(28,0)"/>
<path d="" fill="#ABACAF" transform="translate(0,0)"/>
<path d="" fill="#BEBFC1" transform="translate(0,0)"/>
</svg>
